<svg xmlns="http://www.w3.org/2000/svg" viewBox="0 0 210.41 148.17"><defs><style>.cls-1,.cls-2,.cls-3,.cls-4{fill:none;stroke-miterlimit:10;stroke-width:6px;}.cls-1{stroke:#629cba;}.cls-2{stroke:#939393;}.cls-3{stroke:#f37153;}.cls-4{stroke:#fff;}.cls-5{fill:#fff;}</style></defs><title>Asset 11</title><g id="Layer_2" data-name="Layer 2"><g id="Layer_1-2" data-name="Layer 1"><path class="cls-1" d="M115.67,119.77A61.89,61.89,0,1,1,129.24,46.5"/><path class="cls-2" d="M103.93,29.55A53.61,53.61,0,1,0,87.36,126a54.23,54.23,0,0,0,10.47-3.87"/><path class="cls-3" d="M84.32,116.91a44,44,0,1,1,.76-85.48"/><path class="cls-4" d="M128.77,119.49a70.68,70.68,0,0,1-24.9,19.14,71.54,71.54,0,0,1-22.45,6.15,71.11,71.11,0,1,1,60.77-91"/><path class="cls-5" d="M88.31,89.42a4.55,4.55,0,0,0-1.77-3.85,23.33,23.33,0,0,0-6.38-2.83,45.48,45.48,0,0,1-7.28-2.93q-7.32-4-7.32-10.65a10.43,10.43,0,0,1,2-6.21,12.88,12.88,0,0,1,5.64-4.27,21.26,21.26,0,0,1,8.24-1.53,19.36,19.36,0,0,1,8.21,1.67,13.15,13.15,0,0,1,5.59,4.7,12.39,12.39,0,0,1,2,6.9H88.34a5.78,5.78,0,0,0-1.86-4.58,7.65,7.65,0,0,0-5.22-1.64,8.2,8.2,0,0,0-5.05,1.37,4.34,4.34,0,0,0-1.8,3.62,4.17,4.17,0,0,0,2.11,3.51,23.89,23.89,0,0,0,6.21,2.65c5,1.52,8.7,3.39,11,5.64a11.18,11.18,0,0,1,3.46,8.37A10.34,10.34,0,0,1,93,98.11q-4.22,3.18-11.36,3.17a22,22,0,0,1-9-1.81,14.37,14.37,0,0,1-6.21-5,12.81,12.81,0,0,1-2.14-7.32h8.88q0,7.11,8.5,7.11A8.3,8.3,0,0,0,86.54,93,4.18,4.18,0,0,0,88.31,89.42Z"/><path class="cls-5" d="M121.11,100.69a9.31,9.31,0,0,1-.85-2.86,10.33,10.33,0,0,1-8.06,3.45,11.32,11.32,0,0,1-7.77-2.71,8.71,8.71,0,0,1-3.08-6.84,9,9,0,0,1,3.76-7.79q3.77-2.72,10.87-2.75h3.92V79.36a5.31,5.31,0,0,0-1.13-3.54,4.5,4.5,0,0,0-3.59-1.32,5,5,0,0,0-3.37,1,3.5,3.5,0,0,0-1.23,2.83h-8.52a8.55,8.55,0,0,1,1.71-5.13,11.22,11.22,0,0,1,4.83-3.7,17.59,17.59,0,0,1,7-1.35q5.9,0,9.36,3a10.36,10.36,0,0,1,3.47,8.33V93.32a15.18,15.18,0,0,0,1.27,6.87v.5Zm-7-5.93a7.33,7.33,0,0,0,3.48-.84,5.53,5.53,0,0,0,2.36-2.25V86.18h-3.18q-6.41,0-6.82,4.42l0,.51A3.43,3.43,0,0,0,111,93.73,4.35,4.35,0,0,0,114.06,94.76Z"/><path class="cls-5" d="M144,100.69h-8.55V55.38H144Z"/><path class="cls-5" d="M170.14,97.45a10.69,10.69,0,0,1-8.73,3.83q-5.13,0-7.83-3c-1.8-2-2.72-4.85-2.76-8.64V68.77h8.53V89.42q0,5,4.54,5c2.89,0,4.88-1,6-3V68.77h8.55v31.92h-8Z"/><path class="cls-5" d="M202.12,91.87a2.73,2.73,0,0,0-1.55-2.46,17.49,17.49,0,0,0-5-1.61q-11.39-2.39-11.38-9.68A8.76,8.76,0,0,1,187.74,71,14.2,14.2,0,0,1,197,68.18q6.07,0,9.72,2.86a9,9,0,0,1,3.64,7.44H201.8a4.13,4.13,0,0,0-1.18-3,5,5,0,0,0-3.69-1.2,5.07,5.07,0,0,0-3.33,1,3.07,3.07,0,0,0-1.18,2.48A2.61,2.61,0,0,0,193.76,80a13.68,13.68,0,0,0,4.53,1.5,37.87,37.87,0,0,1,5.36,1.43q6.76,2.49,6.76,8.59a8.32,8.32,0,0,1-3.75,7.06,16.13,16.13,0,0,1-9.67,2.7,16.81,16.81,0,0,1-7.13-1.43A12,12,0,0,1,185,95.93a9.12,9.12,0,0,1-1.77-5.39h8.09A4.42,4.42,0,0,0,193,94a6.68,6.68,0,0,0,4.18,1.2,6.19,6.19,0,0,0,3.71-.92A2.91,2.91,0,0,0,202.12,91.87Z"/></g></g></svg>