<svg xmlns="http://www.w3.org/2000/svg" viewBox="0 0 689.25 525.39"><defs><style>.cls-1,.cls-2,.cls-3,.cls-4,.cls-7{fill:none;}.cls-1{stroke:#629cba;}.cls-1,.cls-2,.cls-3,.cls-4,.cls-6,.cls-7,.cls-9{stroke-miterlimit:10;}.cls-1,.cls-2,.cls-3,.cls-4{stroke-width:19px;}.cls-2{stroke:#939393;}.cls-3{stroke:#f04d25;}.cls-4{stroke:#fff;}.cls-5,.cls-6,.cls-9{fill:#fff;}.cls-6,.cls-7{stroke:#231f20;}.cls-8{fill:#231f20;}.cls-9{stroke:#000;}</style></defs><title>Asset 5</title><g id="Layer_2" data-name="Layer 2"><g id="Layer_1-2" data-name="Layer 1"><path class="cls-1" d="M410.8,425.45A220.52,220.52,0,0,1,139.08,446C37.94,378.24,10.91,241.3,78.69,140.16S283.41,12,384.55,79.78a219.48,219.48,0,0,1,74.57,84.7"/><path class="cls-2" d="M369,104.11C281.38,45.4,162.77,68.82,104.06,156.42s-35.3,206.21,52.31,264.93A191.18,191.18,0,0,0,347.26,434"/><path class="cls-3" d="M299.12,415.28a156.86,156.86,0,1,1,2.74-304.46"/><path class="cls-4" d="M466.47,412.94a251.54,251.54,0,0,1-84.65,73.18,253.31,253.31,0,0,1-247.74-5.37c-120.42-71-160.47-226.24-89.44-346.67S270.88-26.39,391.31,44.64A252.18,252.18,0,0,1,500.7,176.4"/><path class="cls-5" d="M254.34,317.37q0-8.94-6.31-13.72t-22.69-10.08q-16.4-5.31-26-10.46-26.06-14.08-26-37.93a36.92,36.92,0,0,1,7-22.12q7-9.72,20.07-15.18a75.58,75.58,0,0,1,29.37-5.47q16.4,0,29.21,5.94a46.49,46.49,0,0,1,19.91,16.76A43.86,43.86,0,0,1,286,249.7H254.44q0-10.51-6.62-16.34t-18.59-5.83q-11.56,0-18,4.88a15.42,15.42,0,0,0-6.41,12.87q0,7.47,7.51,12.51t22.12,9.46q26.9,8.08,39.19,20.06T286,317.16q0,19.84-15,31.15t-40.45,11.3a78.13,78.13,0,0,1-32.16-6.47q-14.49-6.47-22.11-17.7a45.34,45.34,0,0,1-7.62-26.06h31.63q0,25.32,30.26,25.32,11.23,0,17.54-4.57A14.85,14.85,0,0,0,254.34,317.37Z"/><path class="cls-5" d="M371.18,357.5a34,34,0,0,1-3.05-10.19q-11,12.3-28.68,12.3-16.71,0-27.69-9.67a31.1,31.1,0,0,1-11-24.38q0-18.07,13.4-27.74t38.72-9.77h14v-6.51q0-7.89-4-12.61t-12.77-4.73q-7.67,0-12,3.67A12.51,12.51,0,0,0,333.67,278H303.3a30.46,30.46,0,0,1,6.1-18.28q6.09-8.4,17.23-13.19a62.91,62.91,0,0,1,25-4.78q21,0,33.36,10.56T397.35,282v49.29q.11,16.17,4.52,24.48v1.78Zm-25.11-21.12a26.11,26.11,0,0,0,12.4-3,19.7,19.7,0,0,0,8.4-8V305.81H355.53q-22.81,0-24.28,15.76l-.1,1.78a12.18,12.18,0,0,0,4,9.36Q339.13,336.39,346.07,336.38Z"/><path class="cls-5" d="M452.72,357.5H422.25V196.11h30.47Z"/><path class="cls-5" d="M545.82,346q-11.25,13.65-31.11,13.66-18.27,0-27.89-10.51T477,318.31v-74.5h30.37v73.54q0,17.77,16.18,17.77,15.45,0,21.23-10.73V243.81h30.47V357.5H546.66Z"/><path class="cls-5" d="M659.72,326.09q0-5.58-5.52-8.78t-17.7-5.72q-40.56-8.52-40.56-34.47,0-15.14,12.56-25.27t32.83-10.14q21.64,0,34.62,10.19t13,26.48H658.56a14.71,14.71,0,0,0-4.2-10.77q-4.2-4.25-13.13-4.25-7.68,0-11.88,3.46a11,11,0,0,0-4.2,8.83q0,5,4.78,8.14t16.13,5.36a132.38,132.38,0,0,1,19.12,5.1q24.06,8.82,24.07,30.58,0,15.54-13.35,25.16t-34.46,9.62a60.1,60.1,0,0,1-25.38-5.1,42.58,42.58,0,0,1-17.39-14,32.46,32.46,0,0,1-6.3-19.17h28.79q.42,8.08,6,12.4t14.92,4.31q8.71,0,13.18-3.32A10.28,10.28,0,0,0,659.72,326.09Z"/><path class="cls-6" d="M535.23,414.59l0,.05c-.35.58-7.14,11.43-24.73,6.48,0,0-9.11-2.69-13.31-8h0c-.15-.15-6.46-6.77-6.1-12.6a6.29,6.29,0,0,1,1-3.29s2.3-3.14,1.86-6c-.27-1.77-.74-2.14-1.07-2.16a.23.23,0,0,1-.19-.31,3.8,3.8,0,0,0,.24-2.06c-.28-1,3.54.63,4.4,1.76a.36.36,0,0,1,0,.09,3.7,3.7,0,0,1-.17,1.83v0a6.92,6.92,0,0,0,1.12,4.36.05.05,0,0,1,0,0c.19.44,4.24,9.83,8.37,11.95l.05,0a20.58,20.58,0,0,0,19.47,4.12s3.32-1.19,8.53.48a.26.26,0,0,1,.14.11l.82,1.4a.25.25,0,0,1,0,.19Z"/><path class="cls-7" d="M534.79,411.4l.92,1.57-.49,1.64-.53-1.2s.46-.2.1-2c0,0,.42,1.34-7.43,2.6s-20,2.79-27.83-13c0,0-3.24-5.83-3.21-7.29a45.42,45.42,0,0,0-.46-4.76"/><path class="cls-8" d="M534.83,411.62a2.16,2.16,0,0,1-.14,1.79l.53,1.2.49-1.64-.7-1.19S534.76,411.37,534.83,411.62Z"/><path class="cls-6" d="M541.59,398.19v.05c-.12.67-2.51,13.25-20.7,15,0,0-9.47.79-15.3-2.62h0c-.2-.09-8.48-4-10.26-9.53a6.32,6.32,0,0,1-.29-3.42s1-3.76-.45-6.29c-.89-1.55-1.47-1.73-1.78-1.63a.23.23,0,0,1-.29-.22,3.72,3.72,0,0,0-.52-2c-.61-.8,3.52-.7,4.74,0l.07.07a3.72,3.72,0,0,1,.51,1.77.08.08,0,0,0,0,0A6.91,6.91,0,0,0,500,393.1l0,0c.34.35,7.51,7.63,12.13,8.1l0,0A20.6,20.6,0,0,0,531.8,398s2.67-2.32,8.13-2.65a.34.34,0,0,1,.17.05l1.27,1a.24.24,0,0,1,.09.16Z"/><path class="cls-7" d="M540,395.38l1.43,1.13.14,1.71-.94-.93s.37-.35-.63-1.91c0,0,.88,1.1-6,5.11s-17.62,9.85-30.66-2c0,0-5.12-4.25-5.63-5.62a43.84,43.84,0,0,0-2.15-4.27"/><path class="cls-8" d="M530.84,401.42a2.2,2.2,0,0,1,.51,1.72l.93.93-.14-1.71-1.08-.86S530.67,401.21,530.84,401.42Z"/><path class="cls-9" d="M566.61,410.86s-5.55-9.29,3.66-21.52c0,0,6.27-10,18.75-8.72a17.33,17.33,0,0,1,16.15,9.29s13,15.31-1.88,29.26c0,0-7.89,6.2-16.29,6S568,415.05,566.61,410.86Z"/><path class="cls-9" d="M568.29,410.54s-5.16-8.66,3.42-20.06c0,0,3-2.62,5.89-4.81s5.76-3.92,11.57-3.31a16.11,16.11,0,0,1,10.46,3.23,17.05,17.05,0,0,1,4.59,5.43s7.87,9.29,3.63,19.71a21.5,21.5,0,0,1-5.38,7.55s-7.35,5.78-15.18,5.63S569.58,414.44,568.29,410.54Z"/><path class="cls-9" d="M573.87,390.79s2.62-4.89,7.43-5.12c0,0,4.78,9.55,5.1,11.59,0,0,2.36,4.57-2.45,1.06S573.87,390.79,573.87,390.79Z"/><path class="cls-9" d="M582.17,384.68s4.86-2.68,9-.26c0,0-1.17,10.62-2,12.51,0,0-.51,5.11-2.63-.45S582.17,384.68,582.17,384.68Z"/><path class="cls-9" d="M592,384.69s7.34,1.75,8.94,6.29c0,0-7.8,7.31-9.66,8.19,0,0-3.72,3.56-1.71-2A52.65,52.65,0,0,0,592,384.69Z"/><path class="cls-9" d="M603,392.33s3.73,4.1,2.34,8.71c0,0-10.6,1.32-12.63.94,0,0-5.09.69-.17-2.66S603,392.33,603,392.33Z"/><path class="cls-9" d="M591.12,420.71s-5.3,1.62-8.88-1.61c0,0,3.35-10.15,4.56-11.82,0,0,1.56-4.9,2.48,1S591.12,420.71,591.12,420.71Z"/><path class="cls-9" d="M580,419.17s-5.32-1.54-6.55-6.2c0,0,8.34-6.68,10.26-7.42,0,0,4-3.25,1.54,2.18S580,419.17,580,419.17Z"/><path class="cls-9" d="M572.18,412.18s-4-6.42-1.87-10.76c0,0,10.68.34,12.62,1,0,0,5.14.11-.24,2.66A52.7,52.7,0,0,0,572.18,412.18Z"/><path class="cls-9" d="M569.86,399.06s.26-5.54,4.51-7.82c0,0,8.42,6.57,9.59,8.27,0,0,4.09,3.12-1.76,2S569.86,399.06,569.86,399.06Z"/><path class="cls-9" d="M606.2,403.47c-.26,2.1-.89,7.25-3.38,9.29a1.08,1.08,0,0,1-1.32,0c-2-1.45-8.29-6-9.33-7.37,0,0-4.22-2.93,1.67-2.08,4.31.62,8.92-.86,11.18-1.09A1.08,1.08,0,0,1,606.2,403.47Z"/><path class="cls-9" d="M600.74,416.3s-3.43,4.35-8.21,3.74c0,0-3-10.23-3-12.3,0,0-1.52-4.91,2.6-.61S600.74,416.3,600.74,416.3Z"/><path class="cls-5" d="M649.36,389.18s12.56-1.09,21.63-5.81,2.63,2.09,2.63,2.09-15.86,17-10.72,23.52l-1.51-.13a3.76,3.76,0,0,0-1.16-1.78s-.43-8.41,10.37-20.83c0,0,3-2.69-2.36,0,0,0-14.32,4.24-17.51,5S648.65,392,649.36,389.18Z"/><path class="cls-6" d="M649.87,390.79s-1.81-8.22-8.28-7-12.94,13.3-9.31,16.93c3.27,3.27,1.57,4,7.92,5.8a5.12,5.12,0,0,0,4.39-.79C648.91,402.62,658,394.91,649.87,390.79Z"/><path class="cls-6" d="M663.17,405.93s6.67-1.69,6.78,4.91-10.31,15.43-14.62,12.64c-3.88-2.52-4.28-.7-7.32-6.55a5.11,5.11,0,0,1-.15-4.45C650.05,407.6,657.45,398.88,663.17,405.93Z"/></g></g></svg>